#!OML:ASF F:\VICON\USERDATA\INSTALL\rory3\rory3.ASF
:FULLY-SPECIFIED
:DEGREES
3732
root -4.2758 18.8137 2.44896 -13.6505 -23.7458 9.61206
lowerback 22.2045 9.97828 0.95956
upperback 8.03402 13.03 -0.399757
thorax -3.01763 6.43812 -4.04012
lowerneck -11.778 -4.95829 -6.85759
upperneck 7.73667 -6.28956 7.03696
head 4.68165 -2.88202 2.80607
rclavicle -1.42727e-013 5.88403e-014
rhumerus 24.8452 -24.0197 -91.0369
rradius 134.279
rwrist -58.2915
rhand -12.3969 5.81107
rfingers 7.12502
rthumb 13.6746 -23.7197
lclavicle -1.42727e-013 5.88403e-014
lhumerus -60.0386 37.1791 9.96515
lradius 32.7869
lwrist 39.5598
lhand -28.1434 18.2256
lfingers 7.12502
lthumb -1.52436 48.1999
rfemur -2.4482 16.6342 15.9198
rtibia 27.8662
rfoot -13.3375 -2.74228
rtoes 2.44783
lfemur -98.1437 -3.46699 -22.0814
ltibia 122.762
lfoot -9.86207 -3.96792
ltoes -11.1594
3733
root -4.2846 18.8121 2.44605 -13.2502 -23.4817 9.48927
lowerback 21.8228 9.87582 0.947986
upperback 8.03051 12.9026 -0.404143
thorax -2.84395 6.38258 -3.94282
lowerneck -11.8984 -4.94458 -6.89867
upperneck 7.67934 -6.2582 7.07349
head 4.68412 -2.86364 2.82477
rclavicle -1.14898e-013 3.02153e-014
rhumerus 24.7468 -24.2075 -90.825
rradius 134.174
rwrist -58.3087
rhand -12.1756 5.94856
rfingers 7.12502
rthumb 13.8878 -23.5677
lclavicle -1.14898e-013 3.02153e-014
lhumerus -59.6135 37.2476 10.562
lradius 33.1804
lwrist 39.9399
lhand -28.2319 18.2411
lfingers 7.12502
lthumb -1.60991 48.2148
rfemur -2.88875 16.4877 15.9305
rtibia 28.0776
rfoot -13.4787 -2.94146
rtoes 2.47498
lfemur -97.5 -3.25504 -22.2494
ltibia 122.545
lfoot -9.72716 -4.01659
ltoes -10.5029
3734
root -4.29669 18.8007 2.44465 -12.8156 -23.2854 9.23769
lowerback 21.4564 9.74951 1.01406
upperback 7.98215 12.7607 -0.399417
thorax -2.71238 6.31868 -3.88162
lowerneck -11.9226 -4.90615 -6.80017
upperneck 7.57007 -6.20857 7.00944
head 4.64567 -2.84044 2.79345
rclavicle -1.06549e-013 6.04305e-014
rhumerus 24.5907 -24.3489 -90.6648
rradius 134.036
rwrist -58.4702
rhand -11.9652 6.31764
rfingers 7.12502
rthumb 14.0905 -23.1846
lclavicle -1.06549e-013 6.04305e-014
lhumerus -59.2119 37.1131 11.1838
lradius 33.6855
lwrist 40.4758
lhand -28.4547 18.358
lfingers 7.12502
lthumb -1.82502 48.33
rfemur -3.31452 16.382 16.1139
rtibia 28.2757
rfoot -13.6133 -3.19471
rtoes 3.21808
lfemur -96.7417 -2.8983 -22.3622
ltibia 122.406
lfoot -9.4211 -3.84147
ltoes -11.208
3735
root -4.30916 18.7873 2.44679 -12.5572 -23.1457 9.08727
lowerback 21.2335 9.64302 1.0354
upperback 7.93595 12.6303 -0.433008
thorax -2.64847 6.25765 -3.86555
lowerneck -11.8559 -4.85047 -6.6859
upperneck 7.37894 -6.141 6.9567
head 4.56589 -2.80972 2.76683
rclavicle -3.43897e-014 3.02153e-014
rhumerus 24.3623 -24.4591 -90.4751
rradius 133.959
rwrist -58.7132
rhand -11.8629 6.4991
rfingers 7.12502
rthumb 14.1891 -22.9963
lclavicle -3.43897e-014 3.02153e-014
lhumerus -58.8111 36.933 11.7283
lradius 34.14
lwrist 40.7741
lhand -28.4174 18.3525
lfingers 7.12502
lthumb -1.78909 48.3248
rfemur -3.55026 16.3531 16.2393
rtibia 28.4135
rfoot -13.7588 -3.35448
rtoes 5.45092
lfemur -95.6499 -2.43237 -22.6253
ltibia 122.291
lfoot -9.16248 -3.51373
ltoes -12.5867
3736
root -4.32102 18.7875 2.45087 -12.3535 -22.932 8.99995
lowerback 20.6634 9.53223 1.04745
upperback 8.15601 12.4937 -0.445789
thorax -2.13029 6.21029 -3.73025
lowerneck -12.031 -4.83332 -6.67491
upperneck 7.12067 -6.09859 6.97541
head 4.51249 -2.78577 2.77271
rclavicle -1.02374e-013 3.33958e-014
rhumerus 24.5303 -24.6112 -90.3109
rradius 133.836
rwrist -59.0854
rhand -11.8684 6.98726
rfingers 7.12502
rthumb 14.1838 -22.5085
lclavicle -1.02374e-013 3.33958e-014
lhumerus -58.3336 37.3313 12.2419
lradius 34.4479
lwrist 40.849
lhand -28.2876 17.9038
lfingers 7.12502
lthumb -1.66368 47.8771
rfemur -3.68148 16.3531 16.3127
rtibia 28.4983
rfoot -13.8488 -3.5927
rtoes 5.65325
lfemur -94.5233 -2.08381 -22.7685
ltibia 122.033
lfoot -9.17402 -3.42355
ltoes -12.2774
